<?xml version="1.0" encoding="UTF-8" standalone="no"?>
<svg
   xmlns:dc="http://purl.org/dc/elements/1.1/"
   xmlns:cc="http://creativecommons.org/ns#"
   xmlns:rdf="http://www.w3.org/1999/02/22-rdf-syntax-ns#"
   xmlns:svg="http://www.w3.org/2000/svg"
   xmlns="http://www.w3.org/2000/svg"
   xmlns:sodipodi="http://sodipodi.sourceforge.net/DTD/sodipodi-0.dtd"
   xmlns:inkscape="http://www.inkscape.org/namespaces/inkscape"
   viewBox="0 0 535.44135 271.07251"
   height="271.07251"
   width="535.44135"
   xml:space="preserve"
   version="1.1"
   id="svg2"
   inkscape:version="0.91 r13725"
   sodipodi:docname="CRG_logo_colour.svg"><sodipodi:namedview
     pagecolor="#ffffff"
     bordercolor="#666666"
     borderopacity="1"
     objecttolerance="10"
     gridtolerance="10"
     guidetolerance="10"
     inkscape:pageopacity="0"
     inkscape:pageshadow="2"
     inkscape:window-width="1600"
     inkscape:window-height="1099"
     id="namedview93"
     showgrid="false"
     fit-margin-top="0"
     fit-margin-left="0"
     fit-margin-right="0"
     fit-margin-bottom="0"
     inkscape:zoom="0.31731092"
     inkscape:cx="-229.52807"
     inkscape:cy="136.61375"
     inkscape:window-x="0"
     inkscape:window-y="28"
     inkscape:window-maximized="1"
     inkscape:current-layer="svg2" /><metadata
     id="metadata8"><rdf:RDF><cc:Work
         rdf:about=""><dc:format>image/svg+xml</dc:format><dc:type
           rdf:resource="http://purl.org/dc/dcmitype/StillImage" /><dc:title></dc:title></cc:Work></rdf:RDF></metadata><defs
     id="defs6"><clipPath
       id="clipPath16"
       clipPathUnits="userSpaceOnUse"><path
         id="path18"
         d="m 262.288,392.737 5.166,-14.801 c 0,0 17.649,6.171 28.626,-0.329 l 0,0 c 18.69,-11.065 16.199,-36.772 8.999,-57.179 l 0,0 c -12.88,-36.513 -20.569,-62.455 -14.438,-88.826 l 0,0 c 3.357,-14.444 17.744,-20.818 23.201,-22.969 l 0,0 c 7,-2.758 21.982,-2.146 21.982,-2.146 l 0,0 -0.467,-5.294 23.449,14.625 -18.047,14.643 -0.952,-6.639 c 0,0 -8.556,-0.278 -13.748,0.517 l 0,0 c -9.921,1.518 -20.23,10.971 -20.143,31.148 l 0,0 c 0.07,16.181 3.101,28.352 12.069,53.901 l 0,0 c 8.65,24.642 15.261,54.592 -2.246,75.861 l 0,0 c -7.804,9.481 -18.818,12.177 -28.822,12.177 l 0,0 c -13.193,0 -24.629,-4.689 -24.629,-4.689"
         inkscape:connector-curvature="0" /></clipPath><linearGradient
       id="linearGradient24"
       spreadMethod="pad"
       gradientTransform="matrix(-8.6e-6,196.23242,196.23242,8.6e-6,310.54687,201.19336)"
       gradientUnits="userSpaceOnUse"
       y2="0"
       x2="1"
       y1="0"
       x1="0"><stop
         id="stop26"
         offset="0"
         style="stop-opacity:1;stop-color:#656263" /><stop
         id="stop28"
         offset="0.383495"
         style="stop-opacity:1;stop-color:#656263" /><stop
         id="stop30"
         offset="0.73628726"
         style="stop-opacity:1;stop-color:#656263" /><stop
         id="stop32"
         offset="1"
         style="stop-opacity:1;stop-color:#e9e9e9" /></linearGradient><clipPath
       id="clipPath40"
       clipPathUnits="userSpaceOnUse"><path
         id="path42"
         d="m 206.275,386.161 6.202,-2.104 c 0,0 -5.089,-16.38 -3.508,-28.37 l 0,0 c 1.066,-8.083 3.27,-22.375 16.53,-36.859 l 0,0 c 16.773,-18.321 53.762,-29.197 100.099,-37.118 l 0,0 c 19.113,-3.266 39.638,-9.176 52.722,-20.821 l 0,0 c 9.847,-8.357 15.816,-18.463 16.91,-31.859 l 0,0 c 1.318,-16.107 -9.439,-26.235 -9.439,-26.235 l 0,0 14.76,-14.586 c 0,0 26.308,30.163 10.609,62.277 l 0,0 c -17.459,35.714 -51.729,46.853 -90.976,53.464 l 0,0 c -35.957,6.058 -66.015,16.998 -76.196,26.969 l 0,0 c -9.826,9.623 -15.426,21.082 -14.018,33.31 l 0,0 c 0.81,7.029 3.916,13.341 3.916,13.341 l 0,0 7.857,-2.383 -11.059,29.88 -24.409,-18.906 z"
         inkscape:connector-curvature="0" /></clipPath><linearGradient
       id="linearGradient48"
       spreadMethod="pad"
       gradientTransform="matrix(-9.5e-6,-216.85791,-216.85791,9.5e-6,311.21631,405.06641)"
       gradientUnits="userSpaceOnUse"
       y2="0"
       x2="1"
       y1="0"
       x1="0"><stop
         id="stop50"
         offset="0"
         style="stop-opacity:1;stop-color:#0092cc" /><stop
         id="stop52"
         offset="0.533981"
         style="stop-opacity:1;stop-color:#0092cc" /><stop
         id="stop54"
         offset="0.97269034"
         style="stop-opacity:1;stop-color:#ffffff" /><stop
         id="stop56"
         offset="1"
         style="stop-opacity:1;stop-color:#ffffff" /></linearGradient><clipPath
       id="clipPath64"
       clipPathUnits="userSpaceOnUse"><path
         id="path66"
         d="M 0,595 842,595 842,0 0,0 0,595 Z"
         inkscape:connector-curvature="0" /></clipPath></defs><g
     transform="matrix(1.25,0,0,-1.25,-257.84375,506.33375)"
     id="g10"><g
       id="g12"><g
         clip-path="url(#clipPath16)"
         id="g14"><g
           id="g20"><g
             id="g22"><path
               id="path34"
               style="fill:url(#linearGradient24);stroke:none"
               d="m 262.288,392.737 5.166,-14.801 c 0,0 17.649,6.171 28.626,-0.329 l 0,0 c 18.69,-11.065 16.199,-36.772 8.999,-57.179 l 0,0 c -12.88,-36.513 -20.569,-62.455 -14.438,-88.826 l 0,0 c 3.357,-14.444 17.744,-20.818 23.201,-22.969 l 0,0 c 7,-2.758 21.982,-2.146 21.982,-2.146 l 0,0 -0.467,-5.294 23.449,14.625 -18.047,14.643 -0.952,-6.639 c 0,0 -8.556,-0.278 -13.748,0.517 l 0,0 c -9.921,1.518 -20.23,10.971 -20.143,31.148 l 0,0 c 0.07,16.181 3.101,28.352 12.069,53.901 l 0,0 c 8.65,24.642 15.261,54.592 -2.246,75.861 l 0,0 c -7.804,9.481 -18.818,12.177 -28.822,12.177 l 0,0 c -13.193,0 -24.629,-4.689 -24.629,-4.689"
               inkscape:connector-curvature="0" /></g></g></g></g><g
       id="g36"><g
         clip-path="url(#clipPath40)"
         id="g38"><g
           id="g44"><g
             id="g46"><path
               id="path58"
               style="fill:url(#linearGradient48);stroke:none"
               d="m 206.275,386.161 6.202,-2.104 c 0,0 -5.089,-16.38 -3.508,-28.37 l 0,0 c 1.066,-8.083 3.27,-22.375 16.53,-36.859 l 0,0 c 16.773,-18.321 53.762,-29.197 100.099,-37.118 l 0,0 c 19.113,-3.266 39.638,-9.176 52.722,-20.821 l 0,0 c 9.847,-8.357 15.816,-18.463 16.91,-31.859 l 0,0 c 1.318,-16.107 -9.439,-26.235 -9.439,-26.235 l 0,0 14.76,-14.586 c 0,0 26.308,30.163 10.609,62.277 l 0,0 c -17.459,35.714 -51.729,46.853 -90.976,53.464 l 0,0 c -35.957,6.058 -66.015,16.998 -76.196,26.969 l 0,0 c -9.826,9.623 -15.426,21.082 -14.018,33.31 l 0,0 c 0.81,7.029 3.916,13.341 3.916,13.341 l 0,0 7.857,-2.383 -11.059,29.88 -24.409,-18.906 z"
               inkscape:connector-curvature="0" /></g></g></g></g><g
       id="g60"><g
         clip-path="url(#clipPath64)"
         id="g62"><g
           transform="translate(425.9395,367.1768)"
           id="g68"><path
             id="path70"
             style="fill:#0092cc;fill-opacity:1;fill-rule:nonzero;stroke:none"
             d="M 0,0 6.965,-0.041 C 6.439,4.163 5.567,8.845 3.999,12.252 c -3.533,7.673 -10.28,12.144 -15.08,13.927 -3.446,1.279 -8.046,2.1 -12.826,2.219 -14.92,0.373 -22.68,-8.574 -26.146,-12.752 -5.454,-6.574 -7.993,-15.474 -8.695,-29.066 -0.405,-7.858 1.961,-22.094 8.407,-29.867 3.165,-3.817 7.094,-6.906 11.822,-9.233 4.805,-2.251 9.477,-2.722 15.785,-2.693 11.76,0.053 18.935,6.149 21.706,9.006 5.133,5.293 8.367,13.927 8.954,20.073 l -7.354,-0.053 c -0.375,-3.603 -3.254,-11.67 -6.146,-14.834 -4.354,-4.759 -10.16,-8.046 -17.267,-8.046 -11.867,0 -18.686,5.24 -22.208,10.623 -2.27,3.467 -3.854,7.17 -5.055,11.372 -1.125,4.28 -1.476,9.3 -1.338,13.652 0.375,11.852 2.435,18.532 6.468,24.765 4.146,6.406 11.557,11.031 21.92,10.907 8.383,-0.101 13.179,-3.693 15.74,-5.86 C -2.127,12.003 -0.281,6.319 0,0"
             inkscape:connector-curvature="0" /></g><g
           transform="translate(445.2578,393.9551)"
           id="g72"><path
             id="path74"
             style="fill:#0092cc;fill-opacity:1;fill-rule:nonzero;stroke:none"
             d="m 0,0 0,-80.397 6.338,0 0,36.044 17.694,0 c 3.523,0.026 8.472,-0.682 10.87,-2.573 1.73,-1.365 3.559,-3.555 4.536,-5.763 2.098,-4.746 3.629,-20.667 4.905,-24.546 0.249,-1.05 0.76,-2.413 1.132,-3.162 l 6.988,0 c -0.684,0.974 -1.198,3.039 -1.677,4.754 -0.939,3.371 -2.105,13.054 -3.279,18.718 -0.434,2.092 -1.913,6.672 -3.42,9.237 -1.888,3.214 -7.297,5.868 -9.856,6.025 l 0,0.225 c 4.288,1.052 9.137,3.18 11.991,6.873 2.652,3.433 4.397,7.492 4.12,13.622 C 49.713,-7.023 40.124,-3.132 37.802,-1.924 35.82,-0.895 29.906,0 27.172,0 L 0,0 Z m 6.474,-38.17 0,32.316 19.699,0 c 4.751,0 9.801,-1.623 12.863,-4.328 2.923,-2.582 4.46,-6.434 4.715,-12.003 0.184,-4.02 -1.827,-8.966 -4.868,-11.572 -2.143,-1.837 -6.685,-4.491 -12.71,-4.413 l -19.699,0 z"
             inkscape:connector-curvature="0" /></g><g
           transform="translate(561.2207,321.6255)"
           id="g76"><path
             id="path78"
             style="fill:#0092cc;fill-opacity:1;fill-rule:nonzero;stroke:none"
             d="m 0,0 0.05,-8.068 20.343,0 0,46.621 -37.401,0 0,-16.331 15.063,0 C -2.579,13.51 -6.244,7.643 -16.612,7.784 c -4.075,0.055 -8.186,2.99 -9.952,5.541 -1.769,2.554 -5.327,9.171 -5.075,18.467 0.285,10.575 3.2,16.314 5.135,18.883 2.355,3.124 6.156,5.121 10.232,5.048 6.269,-0.114 10.885,-4.052 11.434,-9.855 l 24.663,0 c 0.048,4.467 -1.475,10.017 -3.55,13.544 -2.077,3.529 -5.389,6.088 -8.56,8.565 -4.569,3.567 -15.477,6.6 -23.299,6.267 -17.084,-0.728 -26.286,-6.819 -30.1,-11.572 -6.758,-8.421 -10.447,-17.293 -10.56,-30.986 -0.049,-5.856 0.759,-11.579 2.604,-16.684 1.843,-5.029 3.093,-9.07 6.552,-12.824 3.46,-3.753 6.635,-7.069 11.632,-9.246 5.073,-2.099 10.06,-2.801 16.364,-2.801 8.863,0 15.863,5.816 19.092,9.869"
             inkscape:connector-curvature="0" /></g><g
           transform="translate(600.4971,393.4033)"
           id="g80"><path
             id="path82"
             style="fill:#fc6342;fill-opacity:1;fill-rule:evenodd;stroke:none"
             d="m 0,0 34.131,0 0,-33.938 c 0,0 -0.098,-9.065 -6.065,-14.484 -3.656,-3.32 -11.033,-7.065 -11.033,-7.065 l -7.968,9.066 c 0,0 5.162,2.548 7.904,5.548 2.648,2.898 2.677,6.935 2.677,6.935 L 0,-33.938 0,0 Z"
             inkscape:connector-curvature="0" /></g><g
           transform="translate(608.4932,387.2739)"
           id="g84"><path
             id="path86"
             style="fill:#ffffff;fill-opacity:1;fill-rule:evenodd;stroke:none"
             d="m 0,0 0,-21.872 6.617,0 0.109,7.291 1.777,0 c 1.23,0.007 2.075,-1.173 2.309,-3.387 0.128,-1.227 0.322,-2.742 0.515,-3.84 l 7,-0.064 c -0.239,0.269 -0.387,1.226 -0.482,2 -0.121,0.98 -0.388,2.614 -0.582,4.388 -0.065,0.593 -0.775,2.29 -1.678,2.935 -0.9,0.643 -2.031,0.629 -2.926,0.673 l 0,0.062 c 1.498,0.29 2.833,0.858 3.829,1.878 0.927,0.948 1.324,2.469 1.228,4.163 -0.221,3.844 -3.324,5.161 -4.357,5.483 C 12.646,-0.066 10.447,0 9.492,0 L 0,0 Z m 6.632,-9.661 0,4.187 2.4,0 c 0.578,0 1.194,-0.21 1.567,-0.56 0.355,-0.335 0.543,-0.834 0.574,-1.556 C 11.195,-8.111 10.95,-8.751 10.58,-9.089 10.319,-9.327 9.766,-9.671 9.032,-9.661 l -2.4,0 z"
             inkscape:connector-curvature="0" /></g><g
           transform="translate(460.5908,275.5391)"
           id="g88"><path
             id="path90"
             style="fill:#231f20;fill-opacity:1;fill-rule:nonzero;stroke:none"
             d="m 0,0 c -1.651,-1.205 -3.764,-1.967 -6.472,-1.967 -3.346,0 -6.336,1.045 -8.056,3.135 -1.625,1.934 -2.576,4.644 -2.576,8.136 0,3.47 0.884,5.866 2.509,7.8 1.722,2.049 4.298,3.248 7.646,3.248 2.786,0 5.136,-0.606 6.689,-1.84 1.771,-1.408 3.067,-2.901 3.004,-6.648 l -6.095,0 c -0.058,1.045 -0.611,3.398 -3.245,3.398 -2.631,0 -3.947,-1.891 -3.947,-6.196 0,-4.035 1.333,-5.908 3.965,-5.908 2.181,0 3.336,2.656 3.375,3.741 l 6.107,0 C 2.904,6.899 3.245,2.368 0,0"
             inkscape:connector-curvature="0" /></g><g
           transform="translate(476.8037,283.6045)"
           id="g92"><path
             id="path94"
             style="fill:#231f20;fill-opacity:1;fill-rule:nonzero;stroke:none"
             d="m 0,0 c 0.056,1.368 -0.745,2.785 -2.251,2.813 -1.605,0.029 -2.417,-1 -2.472,-2.835 L 0,0 Z M 6.062,-2.852 -4.943,-2.876 c 0,0 -0.198,-3.397 2.498,-3.397 0.918,0 2.295,0.379 2.501,1.883 l 5.875,0.011 C 5.766,-6.212 3.747,-8.142 2.948,-8.64 1.512,-9.534 -0.4,-9.981 -2.357,-9.981 c -3.069,0 -4.728,0.7 -6.087,2.1 -1.36,1.401 -2.227,3.604 -2.227,6.693 0,4.92 4.066,7.639 8.337,7.639 4.665,0 8.797,-2.671 8.396,-9.303"
             inkscape:connector-curvature="0" /></g><g
           transform="translate(501.3975,273.7363)"
           id="g96"><path
             id="path98"
             style="fill:#231f20;fill-opacity:1;fill-rule:nonzero;stroke:none"
             d="m 0,0 -5.87,0 0,8.503 c 0,2.121 -0.401,3.533 -1.904,3.533 -1.689,0 -2.183,-1.349 -2.183,-3.347 l 0,-8.689 -5.868,0 -0.051,15.704 5.573,-0.043 -0.005,-1.729 c 1.237,1.462 2.502,2.364 4.5,2.364 1.688,0 3.189,-0.61 4.281,-1.661 C -0.436,13.604 0,11.701 0,10.012 L 0,0 Z"
             inkscape:connector-curvature="0" /></g><g
           transform="translate(514.2598,285.6602)"
           id="g100"><path
             id="path102"
             style="fill:#231f20;fill-opacity:1;fill-rule:nonzero;stroke:none"
             d="m 0,0 -3.048,0 -0.03,-5.424 c 0,-1.256 0.307,-1.667 1.416,-1.983 0.257,-0.072 0.786,-0.103 1.631,0 l 0,-4.32 c -1.113,-0.206 -2.086,-0.31 -3.075,-0.31 -2.389,0 -3.784,0.789 -4.453,1.599 -0.738,0.892 -1.138,2.563 -1.138,4.83 l 0,5.608 -2.545,0 0,3.979 2.545,0 0,3.792 5.649,0.087 0,-3.879 L 0,3.979 0,0 Z"
             inkscape:connector-curvature="0" /></g><g
           transform="translate(528.377,284.7959)"
           id="g104"><path
             id="path106"
             style="fill:#231f20;fill-opacity:1;fill-rule:nonzero;stroke:none"
             d="m 0,0 c 0,0 -1.73,0.499 -3.491,-0.037 -1.372,-0.419 -2.527,-1.902 -2.527,-3.564 0,-0.617 0.027,-7.284 0.027,-7.284 l -5.872,0 -0.185,15.663 5.611,0 -0.014,-2.326 c 0,0 0.09,0.008 0.178,0.147 C -5.774,3.384 -3.441,6.064 0,4.774 L 0,0 Z"
             inkscape:connector-curvature="0" /></g><g
           transform="translate(540.7676,283.6045)"
           id="g108"><path
             id="path110"
             style="fill:#231f20;fill-opacity:1;fill-rule:nonzero;stroke:none"
             d="m 0,0 c 0.056,1.368 -0.745,2.785 -2.25,2.813 -1.606,0.029 -2.418,-1 -2.474,-2.835 L 0,0 Z m 6.217,-2.895 -11.16,0.019 c 0,0 -0.198,-3.397 2.499,-3.397 0.917,0 2.294,0.379 2.5,1.883 l 5.875,0.011 C 5.766,-6.212 3.746,-8.142 2.948,-8.64 1.513,-9.534 -0.4,-9.981 -2.357,-9.981 c -3.069,0 -4.728,0.7 -6.087,2.1 -1.359,1.401 -2.226,3.604 -2.226,6.693 0,4.92 4.066,7.639 8.336,7.639 4.665,0 8.952,-2.715 8.551,-9.346"
             inkscape:connector-curvature="0" /></g><g
           transform="translate(528.3809,250.29)"
           id="g112"><path
             id="path114"
             style="fill:#231f20;fill-opacity:1;fill-rule:nonzero;stroke:none"
             d="m 0,0 c 0.056,1.368 -0.745,2.784 -2.25,2.813 -1.606,0.029 -2.418,-1 -2.474,-2.834 L 0,0 Z m 6.26,-2.88 -11.203,0.004 c 0,0 -0.198,-3.396 2.498,-3.396 0.918,0 2.295,0.379 2.501,1.881 l 5.875,0.012 C 5.767,-6.212 3.746,-8.142 2.947,-8.639 1.512,-9.534 -0.4,-9.98 -2.357,-9.98 c -3.069,0 -4.729,0.7 -6.087,2.1 -1.36,1.401 -2.227,3.603 -2.227,6.693 0,4.919 4.066,7.638 8.337,7.638 4.665,0 8.994,-2.7 8.594,-9.331"
             inkscape:connector-curvature="0" /></g><g
           transform="translate(509.7598,242.8691)"
           id="g116"><path
             id="path118"
             style="fill:#231f20;fill-opacity:1;fill-rule:nonzero;stroke:none"
             d="m 0,0 0.013,-2.151 5.426,0 0,12.437 -9.976,0 0,-4.357 4.017,0 C -0.688,3.604 -1.666,2.039 -4.433,2.077 -5.52,2.092 -6.616,2.875 -7.087,3.555 c -0.472,0.681 -1.421,2.447 -1.354,4.927 0.076,2.822 0.854,4.352 1.37,5.038 0.628,0.834 1.642,1.366 2.729,1.346 1.673,-0.03 2.905,-1.081 3.051,-2.629 l 6.579,0 c 0.014,1.192 -0.393,2.673 -0.946,3.614 -0.555,0.941 -1.438,1.624 -2.284,2.285 -1.219,0.951 -4.387,1.76 -6.474,1.672 -4.558,-0.195 -6.755,-1.82 -7.772,-3.087 -1.803,-2.247 -2.788,-4.614 -2.818,-8.267 -0.013,-1.562 0.202,-3.089 0.694,-4.451 0.493,-1.342 0.827,-2.42 1.749,-3.421 0.923,-1.002 1.77,-1.887 3.104,-2.467 1.353,-0.56 2.684,-0.748 4.365,-0.748 2.365,0 4.232,1.552 5.094,2.633"
             inkscape:connector-curvature="0" /></g><g
           transform="translate(626.9971,247.3369)"
           id="g120"><path
             id="path122"
             style="fill:#231f20;fill-opacity:1;fill-rule:nonzero;stroke:none"
             d="m 0,0 c 0,-2.101 -1.595,-6.997 -8.023,-7.026 -5.187,-0.023 -8.412,2.791 -8.412,8.33 0,2.657 0.803,4.716 2.411,6.178 1.544,1.401 3.655,2.163 6.332,2.1 C -2.894,9.473 -0.201,6.382 0,2.778 l -5.87,0 c 0,1.689 -1.025,2.47 -2.012,2.494 -1.194,0.029 -2.38,-1.014 -2.38,-3.992 0,-2.778 0.93,-4.087 2.239,-4.115 0.986,-0.021 2.066,0.882 2.153,2.835 L 0,0 Z"
             inkscape:connector-curvature="0" /></g><path
           id="path124"
           style="fill:#231f20;fill-opacity:1;fill-rule:nonzero;stroke:none"
           d="m 608.113,240.795 -5.869,0 0,15.661 5.869,0 0,-15.661 z m 0.032,16.726 -5.931,0 0,4.741 5.931,0 0,-4.741 z"
           inkscape:connector-curvature="0" /><g
           transform="translate(566.4736,248.6377)"
           id="g126"><path
             id="path128"
             style="fill:#231f20;fill-opacity:1;fill-rule:nonzero;stroke:none"
             d="m 0,0 c 0,2.618 -1.099,3.928 -2.427,3.928 -1.451,0 -2.427,-1.31 -2.427,-3.928 0,-2.636 1.148,-4.022 2.495,-4.022 C -1.042,-4.022 0,-2.636 0,0 m 6.078,0.003 c 0,-5.409 -3.546,-8.31 -8.552,-8.31 -5.907,0 -8.478,4.115 -8.478,8.31 0,3.996 2.258,8.278 8.478,8.278 3.935,0 8.552,-2.858 8.552,-8.278"
             inkscape:connector-curvature="0" /></g><g
           transform="translate(553.041,240.5205)"
           id="g130"><path
             id="path132"
             style="fill:#231f20;fill-opacity:1;fill-rule:nonzero;stroke:none"
             d="m 0,0 -5.869,0 0,8.504 c 0,2.121 -0.401,3.532 -1.904,3.532 -1.689,0 -2.182,-1.349 -2.182,-3.347 l 0,-8.689 -5.869,0 -0.052,15.704 5.574,-0.043 -0.005,-1.729 c 1.237,1.463 2.502,2.365 4.5,2.365 1.688,0 3.189,-0.611 4.281,-1.661 C -0.435,13.605 0,11.701 0,10.012 L 0,0 Z"
             inkscape:connector-curvature="0" /></g><g
           transform="translate(590.085,250.0615)"
           id="g134"><path
             id="path136"
             style="fill:#231f20;fill-opacity:1;fill-rule:nonzero;stroke:none"
             d="m 0,0 0,-9.541 -5.869,0 0,8.504 c 0,2.121 -0.047,3.493 -1.549,3.537 -1.337,0.039 -1.703,-1.354 -1.703,-3.352 l 0,-8.689 -5.87,0 -0.05,15.704 5.573,-0.043 -0.004,-1.729 c 0.875,1.426 2.014,2.409 4.35,2.409 1.85,0 3.238,-0.904 4.024,-2.239 0.113,-0.193 0.215,-0.382 0.307,-0.568 0.636,1.172 1.888,2.766 4.237,2.763 C 5.32,6.753 7.12,6.093 8.024,4.561 8.9,3.074 9.122,1.774 9.122,0.086 l 0,-9.627 -5.869,0 0,8.504 C 3.253,1.084 3.205,2.423 1.703,2.5 0.556,2.559 0.138,1.419 0,0"
             inkscape:connector-curvature="0" /></g><g
           transform="translate(455.6064,221.2979)"
           id="g138"><path
             id="path140"
             style="fill:#231f20;fill-opacity:1;fill-rule:nonzero;stroke:none"
             d="m 0,0 c -0.095,1.709 -2.04,1.99 -2.942,1.99 l -1.823,0 0,-3.981 1.823,0 C -2.04,-1.991 0.096,-1.767 0,0 m 6.664,-14.042 -6.601,0 c -0.237,1.48 -0.402,2.65 -0.595,4.405 -0.078,1.228 -0.662,2.703 -2.487,2.703 l -1.859,0 0,-7.108 -6.56,0 0,21.325 9.626,0 c 2.211,0 3.417,-0.226 4.8,-0.948 C 4.776,5.399 6.083,3.282 5.992,1.274 5.875,-1.374 4.173,-3.707 1.366,-3.746 l 0,-0.117 c 1.75,-0.039 3.186,-1.074 3.676,-2.413 0.477,-1.304 0.662,-2.337 0.912,-4.229 0.346,-2.496 0.575,-3.011 0.71,-3.537"
             inkscape:connector-curvature="0" /></g><g
           transform="translate(493.3379,215.5557)"
           id="g142"><path
             id="path144"
             style="fill:#231f20;fill-opacity:1;fill-rule:nonzero;stroke:none"
             d="m 0,0 c 0,2.346 -0.728,3.519 -2.181,3.519 -1.453,0 -2.178,-1.173 -2.178,-3.519 0,-2.363 0.725,-3.545 2.178,-3.545 C -0.728,-3.545 0,-2.363 0,0 m 5.893,-6.129 c 0,-5.566 -2.72,-8.35 -8.158,-8.35 -4.294,0 -7.495,1.792 -7.495,5.367 l 5.614,-0.004 c 0.038,-1.295 1.342,-1.763 2.266,-1.734 1.251,0.039 1.899,1.036 2.238,2.329 0.132,0.494 0.153,1.17 0.153,3.224 l -0.057,0 c -0.831,-1.664 -2.553,-2.425 -4.798,-2.51 -5.258,-0.197 -6.078,5.632 -6.051,7.809 0.08,6.344 4.09,7.646 6.13,7.646 2.077,0 3.908,-1.146 4.719,-2.973 l 0.057,0.35 -0.034,2.28 5.416,0 0,-13.434 z"
             inkscape:connector-curvature="0" /></g><g
           transform="translate(517.3535,207.2578)"
           id="g146"><path
             id="path148"
             style="fill:#231f20;fill-opacity:1;fill-rule:nonzero;stroke:none"
             d="m 0,0 -5.42,-0.002 0.027,1.73 C -5.42,1.695 -5.644,1.881 -5.671,1.849 -6.633,0.168 -7.947,-0.381 -9.9,-0.381 c -1.709,0 -2.979,0.475 -4.071,1.504 -1.07,1.051 -1.377,2.776 -1.377,4.465 l 0,10.072 5.527,0 0,-8.854 C -9.9,5.189 -9.308,3.891 -7.805,3.891 c 0.825,0 1.899,0.785 1.938,2.574 l 0,9.195 5.85,-0.002 L 0,0 Z"
             inkscape:connector-curvature="0" /></g><path
           id="path150"
           style="fill:#231f20;fill-opacity:1;fill-rule:nonzero;stroke:none"
           d="m 526.167,207.256 -6.023,0 0,21.949 6.023,0 0,-21.949 z"
           inkscape:connector-curvature="0" /><g
           transform="translate(538.3623,213.7412)"
           id="g152"><path
             id="path154"
             style="fill:#231f20;fill-opacity:1;fill-rule:nonzero;stroke:none"
             d="m 0,0 -0.701,0 c -2.101,0 -2.978,-0.905 -3.071,-1.769 -0.059,-0.525 0.141,-1.578 1.505,-1.607 0.8,-0.017 1.669,0.437 2.039,1.082 C 0.052,-1.808 0,-1.084 0,0 m 6.02,-6.485 -5.023,0 0.026,1.779 -0.397,-0.054 c -1.071,-1.729 -2.781,-2.188 -5.006,-2.188 -2.798,0 -5.405,1.761 -5.405,5.023 0,2.349 1.564,3.774 3.29,4.419 1.502,0.562 3.639,0.711 6.666,0.711 l 0,1.368 c 0,0.804 -0.782,1.525 -1.565,1.525 -1.5,0 -1.753,-1.458 -1.753,-2.096 l -5.786,0 c 0,0 -0.568,5.638 7.284,5.638 C 0.122,9.64 2.034,9.29 3.29,8.59 4.854,7.725 6.031,6.04 6.031,4.173 6.031,-1.45 6.02,-6.485 6.02,-6.485"
             inkscape:connector-curvature="0" /></g><path
           id="path156"
           style="fill:#231f20;fill-opacity:1;fill-rule:nonzero;stroke:none"
           d="m 566.045,207.256 -5.869,0 0,15.662 5.869,0 0,-15.662 z m 0.03,16.725 -5.931,0 0,4.741 5.931,0 0,-4.741 z"
           inkscape:connector-curvature="0" /><g
           transform="translate(579.4844,215.0986)"
           id="g158"><path
             id="path160"
             style="fill:#231f20;fill-opacity:1;fill-rule:nonzero;stroke:none"
             d="m 0,0 c 0,2.619 -1.099,3.929 -2.428,3.929 -1.449,0 -2.426,-1.31 -2.426,-3.929 0,-2.635 1.147,-4.021 2.495,-4.021 C -1.042,-4.021 0,-2.635 0,0 m 6.079,0.004 c 0,-5.409 -3.546,-8.31 -8.552,-8.31 -5.908,0 -8.479,4.114 -8.479,8.31 0,3.996 2.258,8.278 8.479,8.278 3.934,0 8.552,-2.859 8.552,-8.278"
             inkscape:connector-curvature="0" /></g><g
           transform="translate(474.3535,216.8008)"
           id="g162"><path
             id="path164"
             style="fill:#231f20;fill-opacity:1;fill-rule:nonzero;stroke:none"
             d="m 0,0 c 0.056,1.368 -0.745,2.784 -2.25,2.813 -1.606,0.029 -2.418,-1 -2.473,-2.835 L 0,0 Z m 6.059,-2.888 -11.002,0.012 c 0,0 -0.198,-3.397 2.498,-3.397 0.918,0 2.295,0.379 2.501,1.882 l 5.875,0.012 C 5.766,-6.212 3.746,-8.141 2.948,-8.64 1.513,-9.534 -0.4,-9.981 -2.357,-9.981 c -3.069,0 -4.728,0.7 -6.086,2.1 -1.36,1.401 -2.227,3.604 -2.227,6.694 0,4.919 4.066,7.638 8.336,7.638 4.666,0 8.794,-2.707 8.393,-9.339"
             inkscape:connector-curvature="0" /></g><g
           transform="translate(603.6055,207.3086)"
           id="g166"><path
             id="path168"
             style="fill:#231f20;fill-opacity:1;fill-rule:nonzero;stroke:none"
             d="m 0,0 -5.87,0 0,8.504 c 0,2.12 -0.401,3.532 -1.903,3.532 -1.69,0 -2.183,-1.349 -2.183,-3.348 l 0,-8.688 -5.87,0 -0.05,15.704 5.573,-0.043 -0.004,-1.729 c 1.236,1.462 2.501,2.365 4.499,2.365 1.689,0 3.19,-0.611 4.281,-1.662 C -0.436,13.605 0,11.701 0,10.012 L 0,0 Z"
             inkscape:connector-curvature="0" /></g><g
           transform="translate(557.2715,219.0518)"
           id="g170"><path
             id="path172"
             style="fill:#231f20;fill-opacity:1;fill-rule:nonzero;stroke:none"
             d="m 0,0 -3.048,0 -0.03,-5.424 c 0,-1.256 0.307,-1.667 1.416,-1.983 0.257,-0.072 0.786,-0.103 1.631,0 l 0,-4.321 c -1.113,-0.205 -2.086,-0.309 -3.075,-0.309 -2.389,0 -3.784,0.789 -4.453,1.599 -0.738,0.892 -1.138,2.563 -1.138,4.83 l 0,5.608 -2.545,0 0,3.979 2.545,0 0,3.792 5.649,0.087 0,-3.879 L 0,3.979 0,0 Z"
             inkscape:connector-curvature="0" /></g><g
           transform="translate(472.8555,248.5273)"
           id="g174"><path
             id="path176"
             style="fill:#231f20;fill-opacity:1;fill-rule:nonzero;stroke:none"
             d="m 0,0 c 0,-5.409 -3.547,-8.309 -8.552,-8.309 -5.908,0 -8.479,4.114 -8.479,8.309 0,3.996 2.258,8.279 8.479,8.279 C -4.617,8.279 0,5.42 0,0 m -6.079,-0.003 c 0,2.619 -1.099,3.929 -2.427,3.929 -1.45,0 -2.427,-1.31 -2.427,-3.929 0,-2.635 1.148,-4.021 2.495,-4.021 1.317,0 2.359,1.386 2.359,4.021"
             inkscape:connector-curvature="0" /></g><g
           transform="translate(487.127,251.5107)"
           id="g178"><path
             id="path180"
             style="fill:#231f20;fill-opacity:1;fill-rule:nonzero;stroke:none"
             d="m 0,0 c 0,0 -1.73,0.5 -3.491,-0.037 -1.372,-0.418 -2.526,-1.902 -2.526,-3.563 0,-0.617 0.026,-7.284 0.026,-7.284 l -5.872,0 -0.185,15.663 5.611,0 -0.014,-2.326 c 0,0 0.09,0.007 0.179,0.147 C -5.774,3.384 -3.441,6.064 0,4.775 L 0,0 Z"
             inkscape:connector-curvature="0" /></g><g
           transform="translate(455.1699,256.4727)"
           id="g182"><path
             id="path184"
             style="fill:#231f20;fill-opacity:1;fill-rule:nonzero;stroke:none"
             d="m 0,0 -3.05,0.005 c -0.008,1.161 0.311,1.716 1.388,1.751 0.267,0.01 0.776,0.013 1.632,-0.029 l 0,3.21 C -1.168,5.094 -2.117,5.17 -3.105,5.167 -7.48,5.156 -8.696,3.969 -8.696,0.74 l 0,-0.74 -2.546,0 0,-3.979 2.546,0 0,-11.867 5.649,0 0,11.867 3.047,0 L 0,0 Z"
             inkscape:connector-curvature="0" /></g></g></g></g></svg>