<?xml version="1.0" encoding="UTF-8" standalone="no"?>
<!-- Created with Inkscape (http://www.inkscape.org/) -->

<svg
   xmlns:dc="http://purl.org/dc/elements/1.1/"
   xmlns:cc="http://creativecommons.org/ns#"
   xmlns:rdf="http://www.w3.org/1999/02/22-rdf-syntax-ns#"
   xmlns:svg="http://www.w3.org/2000/svg"
   xmlns="http://www.w3.org/2000/svg"
   version="1.1"
   width="252.5575"
   height="172.85049"
   id="svg2"
   xml:space="preserve"><metadata
     id="metadata8"><rdf:RDF><cc:Work
         rdf:about=""><dc:format>image/svg+xml</dc:format><dc:type
           rdf:resource="http://purl.org/dc/dcmitype/StillImage" /><dc:title></dc:title></cc:Work></rdf:RDF></metadata><defs
     id="defs6"><clipPath
       id="clipPath16"><path
         d="m 0,841.89 595.28,0 L 595.28,0 0,0 0,841.89 z"
         id="path18" /></clipPath></defs><g
     transform="matrix(1.25,0,0,-1.25,-37.091625,990.32462)"
     id="g10"><g
       id="g12"><g
         clip-path="url(#clipPath16)"
         id="g14"><g
           transform="translate(52.1982,755.9302)"
           id="g20"><path
             d="m 0,0 c 0,9.085 7.365,16.45 16.45,16.45 l 126.699,0 C 152.235,16.45 159.6,9.085 159.6,0 l 0,-65.799 c 0,-9.086 -7.365,-16.451 -16.451,-16.451 l -126.699,0 C 7.365,-82.25 0,-74.885 0,-65.799 L 0,0 z"
             id="path22"
             style="fill:#bfbdbc;fill-opacity:1;fill-rule:evenodd;stroke:none" /></g><g
           transform="translate(52.1982,755.9302)"
           id="g24"><path
             d="m 0,0 c 0,9.085 7.365,16.45 16.45,16.45 l 126.699,0 C 152.235,16.45 159.6,9.085 159.6,0 l 0,-65.799 c 0,-9.086 -7.365,-16.451 -16.451,-16.451 l -126.699,0 C 7.365,-82.25 0,-74.885 0,-65.799 L 0,0 z"
             id="path26"
             style="fill:none;stroke:#456ea2;stroke-width:6;stroke-linecap:butt;stroke-linejoin:miter;stroke-miterlimit:8;stroke-opacity:1;stroke-dasharray:none" /></g><g
           transform="translate(64.8188,747.5093)"
           id="g28"><path
             d="m 0,0 c 0,6.766 5.485,12.25 12.25,12.25 l 59.5,0 C 78.516,12.25 84,6.766 84,0 l 0,-49 c 0,-6.765 -5.484,-12.25 -12.25,-12.25 l -59.5,0 C 5.485,-61.25 0,-55.765 0,-49 L 0,0 z"
             id="path30"
             style="fill:#f6f6f6;fill-opacity:1;fill-rule:evenodd;stroke:none" /></g><g
           transform="translate(64.8188,747.5093)"
           id="g32"><path
             d="m 0,0 c 0,6.766 5.485,12.25 12.25,12.25 l 59.5,0 C 78.516,12.25 84,6.766 84,0 l 0,-49 c 0,-6.765 -5.484,-12.25 -12.25,-12.25 l -59.5,0 C 5.485,-61.25 0,-55.765 0,-49 L 0,0 z"
             id="path34"
             style="fill:none;stroke:#456ea2;stroke-width:3.96000004;stroke-linecap:butt;stroke-linejoin:miter;stroke-miterlimit:8;stroke-opacity:1;stroke-dasharray:none" /></g><g
           transform="translate(102.6191,746.4595)"
           id="g36"><path
             d="m 0,0 c 0,1.547 1.253,2.8 2.8,2.8 l 11.2,0 c 1.546,0 2.8,-1.253 2.8,-2.8 l 0,-13.3 c 0,-1.546 -1.254,-2.8 -2.8,-2.8 l -11.2,0 c -1.547,0 -2.8,1.254 -2.8,2.8 L 0,0 z"
             id="path38"
             style="fill:#dbdad8;fill-opacity:1;fill-rule:evenodd;stroke:none" /></g><g
           transform="translate(102.6191,746.4595)"
           id="g40"><path
             d="m 0,0 c 0,1.547 1.253,2.8 2.8,2.8 l 11.2,0 c 1.546,0 2.8,-1.253 2.8,-2.8 l 0,-13.3 c 0,-1.546 -1.254,-2.8 -2.8,-2.8 l -11.2,0 c -1.547,0 -2.8,1.254 -2.8,2.8 L 0,0 z"
             id="path42"
             style="fill:none;stroke:#456ea2;stroke-width:3.96000004;stroke-linecap:butt;stroke-linejoin:miter;stroke-miterlimit:8;stroke-opacity:1;stroke-dasharray:none" /></g><g
           transform="translate(117.3188,719.1597)"
           id="g44"><path
             d="m 0,0 c 0,1.546 1.254,2.8 2.8,2.8 l 11.2,0 c 1.547,0 2.8,-1.254 2.8,-2.8 l 0,-13.3 c 0,-1.547 -1.253,-2.8 -2.8,-2.8 l -11.2,0 c -1.546,0 -2.8,1.253 -2.8,2.8 L 0,0 z"
             id="path46"
             style="fill:#dbdad8;fill-opacity:1;fill-rule:evenodd;stroke:none" /></g><g
           transform="translate(117.3188,719.1597)"
           id="g48"><path
             d="m 0,0 c 0,1.546 1.254,2.8 2.8,2.8 l 11.2,0 c 1.547,0 2.8,-1.254 2.8,-2.8 l 0,-13.3 c 0,-1.547 -1.253,-2.8 -2.8,-2.8 l -11.2,0 c -1.546,0 -2.8,1.253 -2.8,2.8 L 0,0 z"
             id="path50"
             style="fill:none;stroke:#456ea2;stroke-width:3.96000004;stroke-linecap:butt;stroke-linejoin:miter;stroke-miterlimit:8;stroke-opacity:1;stroke-dasharray:none" /></g><g
           transform="translate(71.1191,723.3594)"
           id="g52"><path
             d="m 0,0 c 0,0.387 0.313,0.701 0.7,0.701 l 2.8,0 C 3.887,0.701 4.2,0.387 4.2,0 l 0,-2.799 C 4.2,-3.187 3.887,-3.5 3.5,-3.5 l -2.8,0 C 0.313,-3.5 0,-3.187 0,-2.799 L 0,0 z"
             id="path54"
             style="fill:none;stroke:#456ea2;stroke-width:3.96000004;stroke-linecap:butt;stroke-linejoin:miter;stroke-miterlimit:8;stroke-opacity:1;stroke-dasharray:none" /></g><g
           transform="translate(75.3188,719.1597)"
           id="g56"><path
             d="m 0,0 c 0,0.386 0.313,0.7 0.7,0.7 l 2.8,0 C 3.887,0.7 4.2,0.386 4.2,0 l 0,-2.8 c 0,-0.387 -0.313,-0.7 -0.7,-0.7 l -2.8,0 C 0.313,-3.5 0,-3.187 0,-2.8 L 0,0 z"
             id="path58"
             style="fill:none;stroke:#456ea2;stroke-width:3.96000004;stroke-linecap:butt;stroke-linejoin:miter;stroke-miterlimit:8;stroke-opacity:1;stroke-dasharray:none" /></g><g
           transform="translate(79.519,714.9595)"
           id="g60"><path
             d="m 0,0 c 0,0.387 0.313,0.7 0.7,0.7 l 2.8,0 C 3.887,0.7 4.2,0.387 4.2,0 l 0,-2.8 c 0,-0.387 -0.313,-0.7 -0.7,-0.7 l -2.8,0 C 0.313,-3.5 0,-3.187 0,-2.8 L 0,0 z"
             id="path62"
             style="fill:none;stroke:#456ea2;stroke-width:3.96000004;stroke-linecap:butt;stroke-linejoin:miter;stroke-miterlimit:8;stroke-opacity:1;stroke-dasharray:none" /></g><g
           transform="translate(83.7192,710.7593)"
           id="g64"><path
             d="m 0,0 c 0,0.387 0.313,0.701 0.7,0.701 l 2.8,0 C 3.886,0.701 4.2,0.387 4.2,0 l 0,-2.799 C 4.2,-3.187 3.886,-3.5 3.5,-3.5 l -2.8,0 C 0.313,-3.5 0,-3.187 0,-2.799 L 0,0 z"
             id="path66"
             style="fill:none;stroke:#456ea2;stroke-width:3.96000004;stroke-linecap:butt;stroke-linejoin:miter;stroke-miterlimit:8;stroke-opacity:1;stroke-dasharray:none" /></g><g
           transform="translate(87.9189,706.5591)"
           id="g68"><path
             d="m 0,0 c 0,0.387 0.313,0.701 0.7,0.701 l 2.8,0 C 3.887,0.701 4.2,0.387 4.2,0 l 0,-2.799 c 0,-0.387 -0.313,-0.7 -0.7,-0.7 l -2.8,0 c -0.387,0 -0.7,0.313 -0.7,0.7 L 0,0 z"
             id="path70"
             style="fill:none;stroke:#456ea2;stroke-width:3.96000004;stroke-linecap:butt;stroke-linejoin:miter;stroke-miterlimit:8;stroke-opacity:1;stroke-dasharray:none" /></g><g
           transform="translate(92.1191,702.3599)"
           id="g72"><path
             d="m 0,0 c 0,0.386 0.313,0.7 0.7,0.7 l 2.8,0 C 3.887,0.7 4.2,0.386 4.2,0 l 0,-2.8 c 0,-0.387 -0.313,-0.7 -0.7,-0.7 l -2.8,0 C 0.313,-3.5 0,-3.187 0,-2.8 L 0,0 z"
             id="path74"
             style="fill:none;stroke:#456ea2;stroke-width:3.96000004;stroke-linecap:butt;stroke-linejoin:miter;stroke-miterlimit:8;stroke-opacity:1;stroke-dasharray:none" /></g><g
           transform="translate(96.3188,698.1597)"
           id="g76"><path
             d="m 0,0 c 0,0.386 0.313,0.7 0.7,0.7 l 2.8,0 C 3.887,0.7 4.2,0.386 4.2,0 l 0,-2.8 c 0,-0.387 -0.313,-0.7 -0.7,-0.7 l -2.8,0 C 0.313,-3.5 0,-3.187 0,-2.8 L 0,0 z"
             id="path78"
             style="fill:none;stroke:#456ea2;stroke-width:3.96000004;stroke-linecap:butt;stroke-linejoin:miter;stroke-miterlimit:8;stroke-opacity:1;stroke-dasharray:none" /></g><g
           transform="translate(73.2192,738.0596)"
           id="g80"><path
             d="m 0,0 c 0,0.387 0.313,0.7 0.7,0.7 l 2.8,0 C 3.886,0.7 4.2,0.387 4.2,0 l 0,-2.8 c 0,-0.387 -0.314,-0.7 -0.7,-0.7 l -2.8,0 C 0.313,-3.5 0,-3.187 0,-2.8 L 0,0 z"
             id="path82"
             style="fill:none;stroke:#456ea2;stroke-width:3.96000004;stroke-linecap:butt;stroke-linejoin:miter;stroke-miterlimit:8;stroke-opacity:1;stroke-dasharray:none" /></g><g
           transform="translate(77.4189,733.8594)"
           id="g84"><path
             d="m 0,0 c 0,0.387 0.313,0.701 0.7,0.701 l 2.8,0 C 3.887,0.701 4.2,0.387 4.2,0 l 0,-2.799 C 4.2,-3.187 3.887,-3.5 3.5,-3.5 l -2.8,0 C 0.313,-3.5 0,-3.187 0,-2.799 L 0,0 z"
             id="path86"
             style="fill:none;stroke:#456ea2;stroke-width:3.96000004;stroke-linecap:butt;stroke-linejoin:miter;stroke-miterlimit:8;stroke-opacity:1;stroke-dasharray:none" /></g><g
           transform="translate(81.6191,729.6597)"
           id="g88"><path
             d="m 0,0 c 0,0.386 0.313,0.7 0.7,0.7 l 2.8,0 C 3.887,0.7 4.2,0.386 4.2,0 l 0,-2.8 c 0,-0.387 -0.313,-0.7 -0.7,-0.7 l -2.8,0 C 0.313,-3.5 0,-3.187 0,-2.8 L 0,0 z"
             id="path90"
             style="fill:none;stroke:#456ea2;stroke-width:3.96000004;stroke-linecap:butt;stroke-linejoin:miter;stroke-miterlimit:8;stroke-opacity:1;stroke-dasharray:none" /></g><g
           transform="translate(85.8188,725.4595)"
           id="g92"><path
             d="m 0,0 c 0,0.387 0.313,0.7 0.7,0.7 l 2.8,0 C 3.887,0.7 4.2,0.387 4.2,0 l 0,-2.8 c 0,-0.387 -0.313,-0.7 -0.7,-0.7 l -2.8,0 C 0.313,-3.5 0,-3.187 0,-2.8 L 0,0 z"
             id="path94"
             style="fill:none;stroke:#456ea2;stroke-width:3.96000004;stroke-linecap:butt;stroke-linejoin:miter;stroke-miterlimit:8;stroke-opacity:1;stroke-dasharray:none" /></g><g
           transform="translate(90.019,721.2593)"
           id="g96"><path
             d="m 0,0 c 0,0.387 0.313,0.701 0.7,0.701 l 2.8,0 C 3.887,0.701 4.2,0.387 4.2,0 l 0,-2.799 C 4.2,-3.187 3.887,-3.5 3.5,-3.5 l -2.8,0 C 0.313,-3.5 0,-3.187 0,-2.799 L 0,0 z"
             id="path98"
             style="fill:none;stroke:#456ea2;stroke-width:3.96000004;stroke-linecap:butt;stroke-linejoin:miter;stroke-miterlimit:8;stroke-opacity:1;stroke-dasharray:none" /></g><g
           transform="translate(94.2192,717.0596)"
           id="g100"><path
             d="m 0,0 c 0,0.387 0.313,0.7 0.7,0.7 l 2.8,0 C 3.886,0.7 4.2,0.387 4.2,0 l 0,-2.8 c 0,-0.387 -0.314,-0.7 -0.7,-0.7 l -2.8,0 C 0.313,-3.5 0,-3.187 0,-2.8 L 0,0 z"
             id="path102"
             style="fill:none;stroke:#456ea2;stroke-width:3.96000004;stroke-linecap:butt;stroke-linejoin:miter;stroke-miterlimit:8;stroke-opacity:1;stroke-dasharray:none" /></g><g
           transform="translate(98.4189,712.8594)"
           id="g104"><path
             d="m 0,0 c 0,0.387 0.313,0.701 0.7,0.701 l 2.8,0 C 3.887,0.701 4.2,0.387 4.2,0 l 0,-2.799 C 4.2,-3.187 3.887,-3.5 3.5,-3.5 l -2.8,0 C 0.313,-3.5 0,-3.187 0,-2.799 L 0,0 z"
             id="path106"
             style="fill:none;stroke:#456ea2;stroke-width:3.96000004;stroke-linecap:butt;stroke-linejoin:miter;stroke-miterlimit:8;stroke-opacity:1;stroke-dasharray:none" /></g><g
           transform="translate(161.4189,752.4097)"
           id="g108"><path
             d="m 0,0 c 0,0.58 0.47,1.05 1.05,1.05 l 4.2,0 C 5.83,1.05 6.3,0.58 6.3,0 l 0,-8.4 c 0,-0.58 -0.47,-1.05 -1.05,-1.05 l -4.2,0 C 0.47,-9.45 0,-8.98 0,-8.4 L 0,0 z"
             id="path110"
             style="fill:#7a7b7c;fill-opacity:1;fill-rule:evenodd;stroke:none" /></g><g
           transform="translate(161.4189,752.4097)"
           id="g112"><path
             d="m 0,0 c 0,0.58 0.47,1.05 1.05,1.05 l 4.2,0 C 5.83,1.05 6.3,0.58 6.3,0 l 0,-8.4 c 0,-0.58 -0.47,-1.05 -1.05,-1.05 l -4.2,0 C 0.47,-9.45 0,-8.98 0,-8.4 L 0,0 z"
             id="path114"
             style="fill:none;stroke:#456ea2;stroke-width:3.96000004;stroke-linecap:butt;stroke-linejoin:miter;stroke-miterlimit:8;stroke-opacity:1;stroke-dasharray:none" /></g><g
           transform="translate(176.1191,731.4097)"
           id="g116"><path
             d="m 0,0 c 0,0.58 0.47,1.05 1.05,1.05 l 4.2,0 C 5.83,1.05 6.3,0.58 6.3,0 l 0,-8.4 c 0,-0.58 -0.47,-1.05 -1.05,-1.05 l -4.2,0 C 0.47,-9.45 0,-8.98 0,-8.4 L 0,0 z"
             id="path118"
             style="fill:#7a7b7c;fill-opacity:1;fill-rule:evenodd;stroke:none" /></g><g
           transform="translate(176.1191,731.4097)"
           id="g120"><path
             d="m 0,0 c 0,0.58 0.47,1.05 1.05,1.05 l 4.2,0 C 5.83,1.05 6.3,0.58 6.3,0 l 0,-8.4 c 0,-0.58 -0.47,-1.05 -1.05,-1.05 l -4.2,0 C 0.47,-9.45 0,-8.98 0,-8.4 L 0,0 z"
             id="path122"
             style="fill:none;stroke:#456ea2;stroke-width:3.96000004;stroke-linecap:butt;stroke-linejoin:miter;stroke-miterlimit:8;stroke-opacity:1;stroke-dasharray:none" /></g><g
           transform="translate(171.9189,699.9097)"
           id="g124"><path
             d="m 0,0 c 0,0.58 0.47,1.05 1.05,1.05 l 4.2,0 C 5.83,1.05 6.3,0.58 6.3,0 l 0,-8.4 c 0,-0.58 -0.47,-1.05 -1.05,-1.05 l -4.2,0 C 0.47,-9.45 0,-8.98 0,-8.4 L 0,0 z"
             id="path126"
             style="fill:#7a7b7c;fill-opacity:1;fill-rule:evenodd;stroke:none" /></g><g
           transform="translate(171.9189,699.9097)"
           id="g128"><path
             d="m 0,0 c 0,0.58 0.47,1.05 1.05,1.05 l 4.2,0 C 5.83,1.05 6.3,0.58 6.3,0 l 0,-8.4 c 0,-0.58 -0.47,-1.05 -1.05,-1.05 l -4.2,0 C 0.47,-9.45 0,-8.98 0,-8.4 L 0,0 z"
             id="path130"
             style="fill:none;stroke:#456ea2;stroke-width:3.96000004;stroke-linecap:butt;stroke-linejoin:miter;stroke-miterlimit:8;stroke-opacity:1;stroke-dasharray:none" /></g><g
           transform="translate(30.6733,723.3457)"
           id="g132"><path
             d="m 0,0 c 0,37.508 44.781,67.914 100.022,67.914 55.242,0 100.024,-30.406 100.024,-67.914 0,-37.508 -44.782,-67.914 -100.024,-67.914 C 44.781,-67.914 0,-37.508 0,0 z"
             id="path134"
             style="fill:none;stroke:#110f0d;stroke-width:2;stroke-linecap:butt;stroke-linejoin:miter;stroke-miterlimit:8;stroke-opacity:1;stroke-dasharray:10.141, 5.07;stroke-dashoffset:0" /></g><g
           transform="translate(58.519,722.6733)"
           id="g136"><path
             d="M 0,0 C 0,37.508 32.907,67.915 73.5,67.915 114.093,67.915 147,37.508 147,0 147,-37.508 114.093,-67.914 73.5,-67.914 32.907,-67.914 0,-37.508 0,0 z"
             id="path138"
             style="fill:none;stroke:#110f0d;stroke-width:1.55999994;stroke-linecap:butt;stroke-linejoin:miter;stroke-miterlimit:8;stroke-opacity:1;stroke-dasharray:10, 5;stroke-dashoffset:0" /></g><g
           transform="translate(102.6191,723.3457)"
           id="g140"><path
             d="M 0,0 C 0,37.508 13.633,67.914 30.45,67.914 47.267,67.914 60.9,37.508 60.9,0 60.9,-37.508 47.267,-67.914 30.45,-67.914 13.633,-67.914 0,-37.508 0,0 z"
             id="path142"
             style="fill:none;stroke:#110f0d;stroke-width:1.55999994;stroke-linecap:butt;stroke-linejoin:miter;stroke-miterlimit:8;stroke-opacity:1;stroke-dasharray:10, 5;stroke-dashoffset:0" /></g></g></g></g></svg>