<?xml version="1.0" encoding="UTF-8" standalone="no"?>
<!-- Created with Inkscape (http://www.inkscape.org/) -->

<svg
   xmlns:dc="http://purl.org/dc/elements/1.1/"
   xmlns:cc="http://creativecommons.org/ns#"
   xmlns:rdf="http://www.w3.org/1999/02/22-rdf-syntax-ns#"
   xmlns:svg="http://www.w3.org/2000/svg"
   xmlns="http://www.w3.org/2000/svg"
   version="1.1"
   width="252.55624"
   height="172.84975"
   id="svg2"
   xml:space="preserve"><metadata
     id="metadata8"><rdf:RDF><cc:Work
         rdf:about=""><dc:format>image/svg+xml</dc:format><dc:type
           rdf:resource="http://purl.org/dc/dcmitype/StillImage" /><dc:title></dc:title></cc:Work></rdf:RDF></metadata><defs
     id="defs6"><clipPath
       id="clipPath16"><path
         d="m 0,841.89 595.28,0 L 595.28,0 0,0 0,841.89 z"
         id="path18" /></clipPath></defs><g
     transform="matrix(1.25,0,0,-1.25,-42.547,988.19812)"
     id="g10"><g
       id="g12"><g
         clip-path="url(#clipPath16)"
         id="g14"><g
           transform="translate(55.2598,754.9702)"
           id="g20"><path
             d="m 0,0 c 0,9.085 7.365,16.45 16.45,16.45 l 126.699,0 C 152.234,16.45 159.6,9.085 159.6,0 l 0,-65.799 c 0,-9.085 -7.366,-16.451 -16.451,-16.451 l -126.699,0 C 7.365,-82.25 0,-74.884 0,-65.799 L 0,0 z"
             id="path22"
             style="fill:#c2dcf2;fill-opacity:1;fill-rule:evenodd;stroke:none" /></g><g
           transform="translate(55.2598,754.9702)"
           id="g24"><path
             d="m 0,0 c 0,9.085 7.365,16.45 16.45,16.45 l 126.699,0 C 152.234,16.45 159.6,9.085 159.6,0 l 0,-65.799 c 0,-9.085 -7.366,-16.451 -16.451,-16.451 l -126.699,0 C 7.365,-82.25 0,-74.884 0,-65.799 L 0,0 z"
             id="path26"
             style="fill:none;stroke:#456ea2;stroke-width:6;stroke-linecap:butt;stroke-linejoin:miter;stroke-miterlimit:8;stroke-opacity:1;stroke-dasharray:none" /></g><g
           transform="translate(67.8809,746.5493)"
           id="g28"><path
             d="m 0,0 c 0,6.766 5.484,12.25 12.25,12.25 l 59.499,0 c 6.767,0 12.25,-5.484 12.25,-12.25 l 0,-49 c 0,-6.765 -5.483,-12.25 -12.25,-12.25 l -59.499,0 C 5.484,-61.25 0,-55.765 0,-49 L 0,0 z"
             id="path30"
             style="fill:#c3e6a7;fill-opacity:1;fill-rule:evenodd;stroke:none" /></g><g
           transform="translate(67.8809,746.5493)"
           id="g32"><path
             d="m 0,0 c 0,6.766 5.484,12.25 12.25,12.25 l 59.499,0 c 6.767,0 12.25,-5.484 12.25,-12.25 l 0,-49 c 0,-6.765 -5.483,-12.25 -12.25,-12.25 l -59.499,0 C 5.484,-61.25 0,-55.765 0,-49 L 0,0 z"
             id="path34"
             style="fill:none;stroke:#456ea2;stroke-width:3.96000004;stroke-linecap:butt;stroke-linejoin:miter;stroke-miterlimit:8;stroke-opacity:1;stroke-dasharray:none" /></g><g
           transform="translate(105.6807,745.499)"
           id="g36"><path
             d="m 0,0 c 0,1.547 1.253,2.8 2.8,2.8 l 11.2,0 c 1.546,0 2.8,-1.253 2.8,-2.8 l 0,-13.3 c 0,-1.546 -1.254,-2.8 -2.8,-2.8 l -11.2,0 c -1.547,0 -2.8,1.254 -2.8,2.8 L 0,0 z"
             id="path38"
             style="fill:#fce782;fill-opacity:1;fill-rule:evenodd;stroke:none" /></g><g
           transform="translate(105.6807,745.499)"
           id="g40"><path
             d="m 0,0 c 0,1.547 1.253,2.8 2.8,2.8 l 11.2,0 c 1.546,0 2.8,-1.253 2.8,-2.8 l 0,-13.3 c 0,-1.546 -1.254,-2.8 -2.8,-2.8 l -11.2,0 c -1.547,0 -2.8,1.254 -2.8,2.8 L 0,0 z"
             id="path42"
             style="fill:none;stroke:#456ea2;stroke-width:3.96000004;stroke-linecap:butt;stroke-linejoin:miter;stroke-miterlimit:8;stroke-opacity:1;stroke-dasharray:none" /></g><g
           transform="translate(120.3809,718.1992)"
           id="g44"><path
             d="m 0,0 c 0,1.546 1.253,2.8 2.8,2.8 l 11.2,0 c 1.546,0 2.799,-1.254 2.799,-2.8 l 0,-13.3 c 0,-1.547 -1.253,-2.8 -2.799,-2.8 l -11.2,0 c -1.547,0 -2.8,1.253 -2.8,2.8 L 0,0 z"
             id="path46"
             style="fill:#fce782;fill-opacity:1;fill-rule:evenodd;stroke:none" /></g><g
           transform="translate(120.3809,718.1992)"
           id="g48"><path
             d="m 0,0 c 0,1.546 1.253,2.8 2.8,2.8 l 11.2,0 c 1.546,0 2.799,-1.254 2.799,-2.8 l 0,-13.3 c 0,-1.547 -1.253,-2.8 -2.799,-2.8 l -11.2,0 c -1.547,0 -2.8,1.253 -2.8,2.8 L 0,0 z"
             id="path50"
             style="fill:none;stroke:#456ea2;stroke-width:3.96000004;stroke-linecap:butt;stroke-linejoin:miter;stroke-miterlimit:8;stroke-opacity:1;stroke-dasharray:none" /></g><g
           transform="translate(74.1807,722.3994)"
           id="g52"><path
             d="m 0,0 c 0,0.387 0.313,0.7 0.7,0.7 l 2.8,0 C 3.886,0.7 4.2,0.387 4.2,0 l 0,-2.8 c 0,-0.388 -0.314,-0.7 -0.7,-0.7 l -2.8,0 C 0.313,-3.5 0,-3.188 0,-2.8 L 0,0 z"
             id="path54"
             style="fill:#b88d1c;fill-opacity:1;fill-rule:evenodd;stroke:none" /></g><g
           transform="translate(74.1807,722.3994)"
           id="g56"><path
             d="m 0,0 c 0,0.387 0.313,0.7 0.7,0.7 l 2.8,0 C 3.886,0.7 4.2,0.387 4.2,0 l 0,-2.8 c 0,-0.388 -0.314,-0.7 -0.7,-0.7 l -2.8,0 C 0.313,-3.5 0,-3.188 0,-2.8 L 0,0 z"
             id="path58"
             style="fill:none;stroke:#456ea2;stroke-width:3.96000004;stroke-linecap:butt;stroke-linejoin:miter;stroke-miterlimit:8;stroke-opacity:1;stroke-dasharray:none" /></g><g
           transform="translate(78.3809,718.1992)"
           id="g60"><path
             d="m 0,0 c 0,0.387 0.313,0.7 0.7,0.7 l 2.8,0 C 3.886,0.7 4.2,0.387 4.2,0 l 0,-2.8 c 0,-0.387 -0.314,-0.7 -0.7,-0.7 l -2.8,0 C 0.313,-3.5 0,-3.187 0,-2.8 L 0,0 z"
             id="path62"
             style="fill:#b88d1c;fill-opacity:1;fill-rule:evenodd;stroke:none" /></g><g
           transform="translate(78.3809,718.1992)"
           id="g64"><path
             d="m 0,0 c 0,0.387 0.313,0.7 0.7,0.7 l 2.8,0 C 3.886,0.7 4.2,0.387 4.2,0 l 0,-2.8 c 0,-0.387 -0.314,-0.7 -0.7,-0.7 l -2.8,0 C 0.313,-3.5 0,-3.187 0,-2.8 L 0,0 z"
             id="path66"
             style="fill:none;stroke:#456ea2;stroke-width:3.96000004;stroke-linecap:butt;stroke-linejoin:miter;stroke-miterlimit:8;stroke-opacity:1;stroke-dasharray:none" /></g><g
           transform="translate(82.5811,713.999)"
           id="g68"><path
             d="m 0,0 c 0,0.387 0.313,0.7 0.7,0.7 l 2.8,0 C 3.886,0.7 4.2,0.387 4.2,0 l 0,-2.8 c 0,-0.387 -0.314,-0.7 -0.7,-0.7 l -2.8,0 C 0.313,-3.5 0,-3.187 0,-2.8 L 0,0 z"
             id="path70"
             style="fill:#b88d1c;fill-opacity:1;fill-rule:evenodd;stroke:none" /></g><g
           transform="translate(82.5811,713.999)"
           id="g72"><path
             d="m 0,0 c 0,0.387 0.313,0.7 0.7,0.7 l 2.8,0 C 3.886,0.7 4.2,0.387 4.2,0 l 0,-2.8 c 0,-0.387 -0.314,-0.7 -0.7,-0.7 l -2.8,0 C 0.313,-3.5 0,-3.187 0,-2.8 L 0,0 z"
             id="path74"
             style="fill:none;stroke:#456ea2;stroke-width:3.96000004;stroke-linecap:butt;stroke-linejoin:miter;stroke-miterlimit:8;stroke-opacity:1;stroke-dasharray:none" /></g><g
           transform="translate(86.7808,709.7988)"
           id="g76"><path
             d="m 0,0 c 0,0.388 0.313,0.7 0.7,0.7 l 2.8,0 C 3.886,0.7 4.2,0.388 4.2,0 l 0,-2.8 c 0,-0.387 -0.314,-0.7 -0.7,-0.7 l -2.8,0 C 0.313,-3.5 0,-3.187 0,-2.8 L 0,0 z"
             id="path78"
             style="fill:#b88d1c;fill-opacity:1;fill-rule:evenodd;stroke:none" /></g><g
           transform="translate(86.7808,709.7988)"
           id="g80"><path
             d="m 0,0 c 0,0.388 0.313,0.7 0.7,0.7 l 2.8,0 C 3.886,0.7 4.2,0.388 4.2,0 l 0,-2.8 c 0,-0.387 -0.314,-0.7 -0.7,-0.7 l -2.8,0 C 0.313,-3.5 0,-3.187 0,-2.8 L 0,0 z"
             id="path82"
             style="fill:none;stroke:#456ea2;stroke-width:3.96000004;stroke-linecap:butt;stroke-linejoin:miter;stroke-miterlimit:8;stroke-opacity:1;stroke-dasharray:none" /></g><g
           transform="translate(90.981,705.5996)"
           id="g84"><path
             d="m 0,0 c 0,0.387 0.313,0.699 0.7,0.699 l 2.8,0 C 3.886,0.699 4.2,0.387 4.2,0 l 0,-2.801 C 4.2,-3.188 3.886,-3.5 3.5,-3.5 l -2.8,0 C 0.313,-3.5 0,-3.188 0,-2.801 L 0,0 z"
             id="path86"
             style="fill:#b88d1c;fill-opacity:1;fill-rule:evenodd;stroke:none" /></g><g
           transform="translate(90.981,705.5996)"
           id="g88"><path
             d="m 0,0 c 0,0.387 0.313,0.699 0.7,0.699 l 2.8,0 C 3.886,0.699 4.2,0.387 4.2,0 l 0,-2.801 C 4.2,-3.188 3.886,-3.5 3.5,-3.5 l -2.8,0 C 0.313,-3.5 0,-3.188 0,-2.801 L 0,0 z"
             id="path90"
             style="fill:none;stroke:#456ea2;stroke-width:3.96000004;stroke-linecap:butt;stroke-linejoin:miter;stroke-miterlimit:8;stroke-opacity:1;stroke-dasharray:none" /></g><g
           transform="translate(95.1807,701.3994)"
           id="g92"><path
             d="m 0,0 c 0,0.387 0.313,0.7 0.7,0.7 l 2.8,0 C 3.886,0.7 4.2,0.387 4.2,0 l 0,-2.8 c 0,-0.388 -0.314,-0.7 -0.7,-0.7 l -2.8,0 C 0.313,-3.5 0,-3.188 0,-2.8 L 0,0 z"
             id="path94"
             style="fill:#b88d1c;fill-opacity:1;fill-rule:evenodd;stroke:none" /></g><g
           transform="translate(95.1807,701.3994)"
           id="g96"><path
             d="m 0,0 c 0,0.387 0.313,0.7 0.7,0.7 l 2.8,0 C 3.886,0.7 4.2,0.387 4.2,0 l 0,-2.8 c 0,-0.388 -0.314,-0.7 -0.7,-0.7 l -2.8,0 C 0.313,-3.5 0,-3.188 0,-2.8 L 0,0 z"
             id="path98"
             style="fill:none;stroke:#456ea2;stroke-width:3.96000004;stroke-linecap:butt;stroke-linejoin:miter;stroke-miterlimit:8;stroke-opacity:1;stroke-dasharray:none" /></g><g
           transform="translate(99.3809,697.1992)"
           id="g100"><path
             d="m 0,0 c 0,0.387 0.313,0.7 0.7,0.7 l 2.8,0 C 3.886,0.7 4.2,0.387 4.2,0 l 0,-2.8 c 0,-0.387 -0.314,-0.7 -0.7,-0.7 l -2.8,0 C 0.313,-3.5 0,-3.187 0,-2.8 L 0,0 z"
             id="path102"
             style="fill:#b88d1c;fill-opacity:1;fill-rule:evenodd;stroke:none" /></g><g
           transform="translate(99.3809,697.1992)"
           id="g104"><path
             d="m 0,0 c 0,0.387 0.313,0.7 0.7,0.7 l 2.8,0 C 3.886,0.7 4.2,0.387 4.2,0 l 0,-2.8 c 0,-0.387 -0.314,-0.7 -0.7,-0.7 l -2.8,0 C 0.313,-3.5 0,-3.187 0,-2.8 L 0,0 z"
             id="path106"
             style="fill:none;stroke:#456ea2;stroke-width:3.96000004;stroke-linecap:butt;stroke-linejoin:miter;stroke-miterlimit:8;stroke-opacity:1;stroke-dasharray:none" /></g><g
           transform="translate(76.2808,737.0991)"
           id="g108"><path
             d="m 0,0 c 0,0.387 0.313,0.7 0.7,0.7 l 2.8,0 C 3.886,0.7 4.2,0.387 4.2,0 l 0,-2.8 c 0,-0.386 -0.314,-0.7 -0.7,-0.7 l -2.8,0 C 0.313,-3.5 0,-3.186 0,-2.8 L 0,0 z"
             id="path110"
             style="fill:#b88d1c;fill-opacity:1;fill-rule:evenodd;stroke:none" /></g><g
           transform="translate(76.2808,737.0991)"
           id="g112"><path
             d="m 0,0 c 0,0.387 0.313,0.7 0.7,0.7 l 2.8,0 C 3.886,0.7 4.2,0.387 4.2,0 l 0,-2.8 c 0,-0.386 -0.314,-0.7 -0.7,-0.7 l -2.8,0 C 0.313,-3.5 0,-3.186 0,-2.8 L 0,0 z"
             id="path114"
             style="fill:none;stroke:#456ea2;stroke-width:3.96000004;stroke-linecap:butt;stroke-linejoin:miter;stroke-miterlimit:8;stroke-opacity:1;stroke-dasharray:none" /></g><g
           transform="translate(80.481,732.8994)"
           id="g116"><path
             d="m 0,0 c 0,0.387 0.313,0.7 0.7,0.7 l 2.8,0 C 3.886,0.7 4.2,0.387 4.2,0 l 0,-2.8 c 0,-0.387 -0.314,-0.7 -0.7,-0.7 l -2.8,0 C 0.313,-3.5 0,-3.187 0,-2.8 L 0,0 z"
             id="path118"
             style="fill:#b88d1c;fill-opacity:1;fill-rule:evenodd;stroke:none" /></g><g
           transform="translate(80.481,732.8994)"
           id="g120"><path
             d="m 0,0 c 0,0.387 0.313,0.7 0.7,0.7 l 2.8,0 C 3.886,0.7 4.2,0.387 4.2,0 l 0,-2.8 c 0,-0.387 -0.314,-0.7 -0.7,-0.7 l -2.8,0 C 0.313,-3.5 0,-3.187 0,-2.8 L 0,0 z"
             id="path122"
             style="fill:none;stroke:#456ea2;stroke-width:3.96000004;stroke-linecap:butt;stroke-linejoin:miter;stroke-miterlimit:8;stroke-opacity:1;stroke-dasharray:none" /></g><g
           transform="translate(84.6807,728.6992)"
           id="g124"><path
             d="m 0,0 c 0,0.387 0.313,0.7 0.7,0.7 l 2.8,0 C 3.886,0.7 4.2,0.387 4.2,0 l 0,-2.8 c 0,-0.386 -0.314,-0.7 -0.7,-0.7 l -2.8,0 C 0.313,-3.5 0,-3.186 0,-2.8 L 0,0 z"
             id="path126"
             style="fill:#b88d1c;fill-opacity:1;fill-rule:evenodd;stroke:none" /></g><g
           transform="translate(84.6807,728.6992)"
           id="g128"><path
             d="m 0,0 c 0,0.387 0.313,0.7 0.7,0.7 l 2.8,0 C 3.886,0.7 4.2,0.387 4.2,0 l 0,-2.8 c 0,-0.386 -0.314,-0.7 -0.7,-0.7 l -2.8,0 C 0.313,-3.5 0,-3.186 0,-2.8 L 0,0 z"
             id="path130"
             style="fill:none;stroke:#456ea2;stroke-width:3.96000004;stroke-linecap:butt;stroke-linejoin:miter;stroke-miterlimit:8;stroke-opacity:1;stroke-dasharray:none" /></g><g
           transform="translate(88.8809,724.499)"
           id="g132"><path
             d="m 0,0 c 0,0.387 0.313,0.7 0.7,0.7 l 2.8,0 C 3.886,0.7 4.2,0.387 4.2,0 l 0,-2.799 C 4.2,-3.187 3.886,-3.5 3.5,-3.5 l -2.8,0 C 0.313,-3.5 0,-3.187 0,-2.799 L 0,0 z"
             id="path134"
             style="fill:#b88d1c;fill-opacity:1;fill-rule:evenodd;stroke:none" /></g><g
           transform="translate(88.8809,724.499)"
           id="g136"><path
             d="m 0,0 c 0,0.387 0.313,0.7 0.7,0.7 l 2.8,0 C 3.886,0.7 4.2,0.387 4.2,0 l 0,-2.799 C 4.2,-3.187 3.886,-3.5 3.5,-3.5 l -2.8,0 C 0.313,-3.5 0,-3.187 0,-2.799 L 0,0 z"
             id="path138"
             style="fill:none;stroke:#456ea2;stroke-width:3.96000004;stroke-linecap:butt;stroke-linejoin:miter;stroke-miterlimit:8;stroke-opacity:1;stroke-dasharray:none" /></g><g
           transform="translate(93.0811,720.2988)"
           id="g140"><path
             d="m 0,0 c 0,0.388 0.313,0.7 0.7,0.7 l 2.8,0 C 3.886,0.7 4.2,0.388 4.2,0 l 0,-2.8 c 0,-0.387 -0.314,-0.7 -0.7,-0.7 l -2.8,0 C 0.313,-3.5 0,-3.187 0,-2.8 L 0,0 z"
             id="path142"
             style="fill:#b88d1c;fill-opacity:1;fill-rule:evenodd;stroke:none" /></g><g
           transform="translate(93.0811,720.2988)"
           id="g144"><path
             d="m 0,0 c 0,0.388 0.313,0.7 0.7,0.7 l 2.8,0 C 3.886,0.7 4.2,0.388 4.2,0 l 0,-2.8 c 0,-0.387 -0.314,-0.7 -0.7,-0.7 l -2.8,0 C 0.313,-3.5 0,-3.187 0,-2.8 L 0,0 z"
             id="path146"
             style="fill:none;stroke:#456ea2;stroke-width:3.96000004;stroke-linecap:butt;stroke-linejoin:miter;stroke-miterlimit:8;stroke-opacity:1;stroke-dasharray:none" /></g><g
           transform="translate(97.2808,716.0996)"
           id="g148"><path
             d="m 0,0 c 0,0.387 0.313,0.699 0.7,0.699 l 2.8,0 C 3.886,0.699 4.2,0.387 4.2,0 l 0,-2.801 C 4.2,-3.188 3.886,-3.5 3.5,-3.5 l -2.8,0 C 0.313,-3.5 0,-3.188 0,-2.801 L 0,0 z"
             id="path150"
             style="fill:#b88d1c;fill-opacity:1;fill-rule:evenodd;stroke:none" /></g><g
           transform="translate(97.2808,716.0996)"
           id="g152"><path
             d="m 0,0 c 0,0.387 0.313,0.699 0.7,0.699 l 2.8,0 C 3.886,0.699 4.2,0.387 4.2,0 l 0,-2.801 C 4.2,-3.188 3.886,-3.5 3.5,-3.5 l -2.8,0 C 0.313,-3.5 0,-3.188 0,-2.801 L 0,0 z"
             id="path154"
             style="fill:none;stroke:#456ea2;stroke-width:3.96000004;stroke-linecap:butt;stroke-linejoin:miter;stroke-miterlimit:8;stroke-opacity:1;stroke-dasharray:none" /></g><g
           transform="translate(101.481,711.8994)"
           id="g156"><path
             d="m 0,0 c 0,0.387 0.313,0.7 0.7,0.7 l 2.8,0 C 3.886,0.7 4.2,0.387 4.2,0 l 0,-2.8 c 0,-0.388 -0.314,-0.7 -0.7,-0.7 l -2.8,0 C 0.313,-3.5 0,-3.188 0,-2.8 L 0,0 z"
             id="path158"
             style="fill:#b88d1c;fill-opacity:1;fill-rule:evenodd;stroke:none" /></g><g
           transform="translate(101.481,711.8994)"
           id="g160"><path
             d="m 0,0 c 0,0.387 0.313,0.7 0.7,0.7 l 2.8,0 C 3.886,0.7 4.2,0.387 4.2,0 l 0,-2.8 c 0,-0.388 -0.314,-0.7 -0.7,-0.7 l -2.8,0 C 0.313,-3.5 0,-3.188 0,-2.8 L 0,0 z"
             id="path162"
             style="fill:none;stroke:#456ea2;stroke-width:3.96000004;stroke-linecap:butt;stroke-linejoin:miter;stroke-miterlimit:8;stroke-opacity:1;stroke-dasharray:none" /></g><g
           transform="translate(164.4805,751.4492)"
           id="g164"><path
             d="m 0,0 c 0,0.58 0.47,1.05 1.05,1.05 l 4.2,0 C 5.83,1.05 6.3,0.58 6.3,0 l 0,-8.4 c 0,-0.579 -0.47,-1.05 -1.05,-1.05 l -4.2,0 C 0.47,-9.45 0,-8.979 0,-8.4 L 0,0 z"
             id="path166"
             style="fill:#7a7b7c;fill-opacity:1;fill-rule:evenodd;stroke:none" /></g><g
           transform="translate(164.4805,751.4492)"
           id="g168"><path
             d="m 0,0 c 0,0.58 0.47,1.05 1.05,1.05 l 4.2,0 C 5.83,1.05 6.3,0.58 6.3,0 l 0,-8.4 c 0,-0.579 -0.47,-1.05 -1.05,-1.05 l -4.2,0 C 0.47,-9.45 0,-8.979 0,-8.4 L 0,0 z"
             id="path170"
             style="fill:none;stroke:#456ea2;stroke-width:3.96000004;stroke-linecap:butt;stroke-linejoin:miter;stroke-miterlimit:8;stroke-opacity:1;stroke-dasharray:none" /></g><g
           transform="translate(179.1797,730.4492)"
           id="g172"><path
             d="m 0,0 c 0,0.58 0.471,1.05 1.051,1.05 l 4.199,0 C 5.831,1.05 6.301,0.58 6.301,0 l 0,-8.4 c 0,-0.579 -0.47,-1.05 -1.051,-1.05 l -4.199,0 C 0.471,-9.45 0,-8.979 0,-8.4 L 0,0 z"
             id="path174"
             style="fill:#7a7b7c;fill-opacity:1;fill-rule:evenodd;stroke:none" /></g><g
           transform="translate(179.1797,730.4492)"
           id="g176"><path
             d="m 0,0 c 0,0.58 0.471,1.05 1.051,1.05 l 4.199,0 C 5.831,1.05 6.301,0.58 6.301,0 l 0,-8.4 c 0,-0.579 -0.47,-1.05 -1.051,-1.05 l -4.199,0 C 0.471,-9.45 0,-8.979 0,-8.4 L 0,0 z"
             id="path178"
             style="fill:none;stroke:#456ea2;stroke-width:3.96000004;stroke-linecap:butt;stroke-linejoin:miter;stroke-miterlimit:8;stroke-opacity:1;stroke-dasharray:none" /></g><g
           transform="translate(174.9805,698.9492)"
           id="g180"><path
             d="m 0,0 c 0,0.58 0.47,1.05 1.05,1.05 l 4.2,0 C 5.83,1.05 6.3,0.58 6.3,0 l 0,-8.4 c 0,-0.579 -0.47,-1.05 -1.05,-1.05 l -4.2,0 C 0.47,-9.45 0,-8.979 0,-8.4 L 0,0 z"
             id="path182"
             style="fill:#7a7b7c;fill-opacity:1;fill-rule:evenodd;stroke:none" /></g><g
           transform="translate(174.9805,698.9492)"
           id="g184"><path
             d="m 0,0 c 0,0.58 0.47,1.05 1.05,1.05 l 4.2,0 C 5.83,1.05 6.3,0.58 6.3,0 l 0,-8.4 c 0,-0.579 -0.47,-1.05 -1.05,-1.05 l -4.2,0 C 0.47,-9.45 0,-8.979 0,-8.4 L 0,0 z"
             id="path186"
             style="fill:none;stroke:#456ea2;stroke-width:3.96000004;stroke-linecap:butt;stroke-linejoin:miter;stroke-miterlimit:8;stroke-opacity:1;stroke-dasharray:none" /></g><g
           transform="translate(35.0376,721.6445)"
           id="g188"><path
             d="m 0,0 c 0,37.508 44.781,67.914 100.022,67.914 55.242,0 100.023,-30.406 100.023,-67.914 0,-37.509 -44.781,-67.914 -100.023,-67.914 C 44.781,-67.914 0,-37.509 0,0 z"
             id="path190"
             style="fill:none;stroke:#110f0d;stroke-width:2;stroke-linecap:butt;stroke-linejoin:miter;stroke-miterlimit:8;stroke-opacity:1;stroke-dasharray:10.141, 5.07;stroke-dashoffset:0" /></g><g
           transform="translate(62.8833,720.9717)"
           id="g192"><path
             d="M 0,0 C 0,37.509 32.907,67.915 73.5,67.915 114.092,67.915 147,37.509 147,0 147,-37.508 114.092,-67.913 73.5,-67.913 32.907,-67.913 0,-37.508 0,0 z"
             id="path194"
             style="fill:none;stroke:#110f0d;stroke-width:1.55999994;stroke-linecap:butt;stroke-linejoin:miter;stroke-miterlimit:8;stroke-opacity:1;stroke-dasharray:10, 5;stroke-dashoffset:0" /></g><g
           transform="translate(106.9834,721.6445)"
           id="g196"><path
             d="M 0,0 C 0,37.508 13.633,67.914 30.449,67.914 47.268,67.914 60.9,37.508 60.9,0 60.9,-37.509 47.268,-67.914 30.449,-67.914 13.633,-67.914 0,-37.509 0,0 z"
             id="path198"
             style="fill:none;stroke:#110f0d;stroke-width:1.55999994;stroke-linecap:butt;stroke-linejoin:miter;stroke-miterlimit:8;stroke-opacity:1;stroke-dasharray:10, 5;stroke-dashoffset:0" /></g></g></g></g></svg>